<?xml version="1.0" encoding="UTF-8" standalone="no"?>
<!-- Created with Inkscape (http://www.inkscape.org/) -->

<svg
   xmlns:dc="http://purl.org/dc/elements/1.1/"
   xmlns:cc="http://creativecommons.org/ns#"
   xmlns:rdf="http://www.w3.org/1999/02/22-rdf-syntax-ns#"
   xmlns:svg="http://www.w3.org/2000/svg"
   xmlns="http://www.w3.org/2000/svg"
   xmlns:xlink="http://www.w3.org/1999/xlink"
   xmlns:sodipodi="http://sodipodi.sourceforge.net/DTD/sodipodi-0.dtd"
   xmlns:inkscape="http://www.inkscape.org/namespaces/inkscape"
   width="210mm"
   height="297mm"
   viewBox="0 0 210 297"
   version="1.1"
   id="svg8"
   inkscape:version="0.92.2 (5c3e80d, 2017-08-06)"
   sodipodi:docname="logo.svg">
  <defs
     id="defs2">
    <clipPath
       clipPathUnits="userSpaceOnUse"
       id="clipPath834">
      <use
         x="0"
         y="0"
         xlink:href="#g830"
         id="use836"
         width="100%"
         height="100%" />
    </clipPath>
  </defs>
  <sodipodi:namedview
     id="base"
     pagecolor="#ffffff"
     bordercolor="#666666"
     borderopacity="1.0"
     inkscape:pageopacity="0.0"
     inkscape:pageshadow="2"
     inkscape:zoom="0.45073661"
     inkscape:cx="2.8164536"
     inkscape:cy="479.14575"
     inkscape:document-units="mm"
     inkscape:current-layer="layer1"
     showgrid="false"
     showguides="true"
     inkscape:guide-bbox="true"
     inkscape:snap-bbox="true"
     inkscape:bbox-paths="true"
     inkscape:bbox-nodes="true"
     inkscape:snap-bbox-edge-midpoints="true"
     inkscape:snap-bbox-midpoints="true"
     inkscape:object-paths="true"
     inkscape:snap-intersection-paths="true"
     inkscape:snap-midpoints="true"
     inkscape:snap-smooth-nodes="true"
     inkscape:snap-object-midpoints="true"
     inkscape:snap-center="true"
     inkscape:snap-text-baseline="true"
     inkscape:snap-page="false"
     inkscape:snap-global="false"
     inkscape:snap-nodes="false"
     inkscape:snap-others="false"
     inkscape:snap-grids="false"
     inkscape:snap-to-guides="false"
     inkscape:window-width="1920"
     inkscape:window-height="1001"
     inkscape:window-x="-9"
     inkscape:window-y="-9"
     inkscape:window-maximized="1" />
  <metadata
     id="metadata5">
    <rdf:RDF>
      <cc:Work
         rdf:about="">
        <dc:format>image/svg+xml</dc:format>
        <dc:type
           rdf:resource="http://purl.org/dc/dcmitype/StillImage" />
        <dc:title></dc:title>
      </cc:Work>
    </rdf:RDF>
  </metadata>
  <g
     inkscape:label="Layer 1"
     inkscape:groupmode="layer"
     id="layer1">
    <g
       id="g832"
       clip-path="url(#clipPath834)"
       transform="matrix(16.686306,0,0,16.686306,-598.84675,-497.64191)"
       inkscape:export-xdpi="96"
       inkscape:export-ydpi="96">
      <g
         inkscape:label="Clip"
         id="g830">
        <rect
           y="31.493826"
           x="40.460419"
           height="4.1658883"
           width="4.1658883"
           id="rect4504"
           style="opacity:1;fill:#000000;fill-opacity:1;stroke:#000000;stroke-width:0.06744502;stroke-linecap:butt;stroke-miterlimit:4;stroke-dasharray:none;stroke-opacity:1" />
        <g
           transform="matrix(0.83218147,0,0,0.83218147,6.6001006,6.1557659)"
           id="text4508"
           style="font-style:normal;font-weight:normal;font-size:10.58333302px;line-height:1.25;font-family:sans-serif;letter-spacing:0px;word-spacing:0px;fill:#ffffff;fill-opacity:1;stroke:none;stroke-width:0.26458332"
           aria-label="D">
          <path
             inkscape:connector-curvature="0"
             id="path4630"
             style="font-style:normal;font-variant:normal;font-weight:bold;font-stretch:normal;font-size:2.99861121px;font-family:abril;-inkscape-font-specification:'abril Bold';fill:#ffffff;fill-opacity:1;stroke-width:0.26458332"
             d="m 41.490399,30.975062 v 1.333855 h 0.202055 q 0.345543,0 0.527099,-0.171307 0.183021,-0.171308 0.183021,-0.497817 0,-0.325044 -0.181556,-0.494888 -0.181557,-0.169843 -0.528564,-0.169843 z M 40.926695,30.54899 h 0.594451 q 0.497817,0 0.740868,0.07174 0.244516,0.07028 0.418752,0.240123 0.153737,0.147881 0.228409,0.341151 0.07467,0.19327 0.07467,0.437785 0,0.247444 -0.07467,0.442178 -0.07467,0.19327 -0.228409,0.341151 -0.1757,0.169843 -0.42168,0.241587 -0.24598,0.07028 -0.73794,0.07028 h -0.594451 z" />
        </g>
        <g
           transform="matrix(0.83218147,0,0,0.83218147,6.6001006,6.1557659)"
           id="text4508-6"
           style="font-style:normal;font-weight:normal;font-size:10.58333302px;line-height:1.25;font-family:sans-serif;letter-spacing:0px;word-spacing:0px;fill:#ffffff;fill-opacity:1;stroke:none;stroke-width:0.26458332"
           aria-label="&amp;">
          <path
             inkscape:connector-curvature="0"
             id="path4627"
             style="font-size:2.99861121px;fill:#ffffff;fill-opacity:1;stroke-width:0.26458332"
             d="m 41.466974,33.975249 q -0.133239,0.118598 -0.196198,0.237195 -0.0615,0.117133 -0.0615,0.24598 0,0.213768 0.155202,0.355792 0.155201,0.142024 0.389468,0.142024 0.139095,0 0.260621,-0.04539 0.121526,-0.04685 0.22841,-0.14056 z m 0.206448,-0.163986 0.743796,0.761366 q 0.08638,-0.130311 0.134703,-0.278192 0.04832,-0.149345 0.0571,-0.316259 h 0.272335 q -0.01757,0.193269 -0.09371,0.382147 -0.07614,0.188877 -0.212304,0.373362 l 0.408502,0.417287 h -0.36897 l -0.209376,-0.215232 q -0.152273,0.130311 -0.319188,0.194734 -0.166915,0.06296 -0.35872,0.06296 -0.352864,0 -0.576882,-0.200591 -0.224017,-0.202054 -0.224017,-0.51685 0,-0.187413 0.0981,-0.3514 0.0981,-0.165451 0.294297,-0.310403 -0.07028,-0.09224 -0.106884,-0.183021 -0.0366,-0.09224 -0.0366,-0.180092 0,-0.237195 0.162523,-0.380683 0.162522,-0.144952 0.431928,-0.144952 0.121526,0 0.241588,0.02635 0.121526,0.02636 0.24598,0.07906 v 0.266479 q -0.127383,-0.06882 -0.243052,-0.103956 -0.115669,-0.0366 -0.215232,-0.0366 -0.153738,0 -0.250373,0.08199 -0.09517,0.08053 -0.09517,0.209376 0,0.07467 0.04246,0.150809 0.04393,0.07467 0.177165,0.212304 z" />
        </g>
        <g
           transform="matrix(0.83218147,0,0,0.83218147,6.6001006,6.1557659)"
           id="text4508-5"
           style="font-style:normal;font-weight:normal;font-size:10.58333302px;line-height:1.25;font-family:sans-serif;letter-spacing:0px;word-spacing:0px;fill:#ffffff;fill-opacity:1;stroke:none;stroke-width:0.26458332"
           aria-label="D">
          <path
             inkscape:connector-curvature="0"
             id="path4621"
             style="font-style:normal;font-variant:normal;font-weight:bold;font-stretch:normal;font-size:2.99861121px;font-family:sans-serif;-inkscape-font-specification:'sans-serif Bold';fill:#ffffff;fill-opacity:1;stroke-width:0.26458332"
             d="m 43.815196,34.629726 h 1.333855 v -0.202055 q 0,-0.345543 -0.171308,-0.5271 -0.171307,-0.18302 -0.497816,-0.18302 -0.325045,0 -0.494888,0.181556 -0.169843,0.181557 -0.169843,0.528564 z m -0.426072,0.563704 v -0.594452 q 0,-0.497816 0.07174,-0.740867 0.07028,-0.244516 0.240123,-0.418752 0.147881,-0.153737 0.34115,-0.22841 0.19327,-0.07467 0.437786,-0.07467 0.247444,0 0.442178,0.07467 0.19327,0.07467 0.341151,0.22841 0.169843,0.1757 0.241587,0.42168 0.07028,0.24598 0.07028,0.737939 v 0.594452 z" />
        </g>
        <g
           transform="matrix(0.83218147,0,0,0.83218147,6.6001006,6.1557659)"
           id="text4508-3"
           style="font-style:normal;font-weight:normal;font-size:10.58333302px;line-height:1.25;font-family:sans-serif;letter-spacing:0px;word-spacing:0px;fill:#ffffff;fill-opacity:1;stroke:none;stroke-width:0.26458332"
           aria-label="S">
          <path
             inkscape:connector-curvature="0"
             id="path4624"
             style="font-style:normal;font-variant:normal;font-weight:bold;font-stretch:normal;font-size:2.99861121px;font-family:sans-serif;-inkscape-font-specification:'sans-serif Bold';fill:#ffffff;fill-opacity:1;stroke-width:0.26458332"
             d="m 45.144168,30.66079 v 0.462676 q -0.180092,-0.08053 -0.351399,-0.121526 -0.171308,-0.041 -0.323581,-0.041 -0.202055,0 -0.29869,0.05564 -0.09663,0.05564 -0.09663,0.172771 0,0.08785 0.06442,0.137632 0.06589,0.04832 0.237194,0.08346 l 0.240124,0.04832 q 0.364577,0.07321 0.518314,0.222553 0.153738,0.149345 0.153738,0.424608 0,0.361649 -0.215233,0.538813 -0.213768,0.1757 -0.654482,0.1757 -0.207911,0 -0.417287,-0.03953 -0.209376,-0.03953 -0.418751,-0.117134 v -0.475854 q 0.209375,0.111277 0.404109,0.168379 0.196199,0.05564 0.377755,0.05564 0.184485,0 0.282584,-0.0615 0.0981,-0.0615 0.0981,-0.1757 0,-0.102492 -0.06735,-0.15813 -0.06589,-0.05564 -0.265014,-0.09956 l -0.218161,-0.04832 q -0.327973,-0.07028 -0.480246,-0.224017 -0.150809,-0.153737 -0.150809,-0.414359 0,-0.326509 0.210839,-0.502209 0.21084,-0.1757 0.606165,-0.1757 0.180092,0 0.370434,0.02782 0.190341,0.02635 0.39386,0.08053 z" />
        </g>
      </g>
    </g>
  </g>
</svg>
